<svg width="51" height="47" viewBox="0 0 51 47" fill="none" xmlns="http://www.w3.org/2000/svg">
<path d="M25.4017 0C11.6674 0 0.520752 10.4533 0.520752 23.3333C0.520752 36.2133 11.6674 46.6667 25.4017 46.6667C39.136 46.6667 50.2827 36.2133 50.2827 23.3333C50.2827 10.4533 39.136 0 25.4017 0ZM25.4017 7C29.5319 7 32.866 10.1267 32.866 14C32.866 17.8733 29.5319 21 25.4017 21C21.2715 21 17.9374 17.8733 17.9374 14C17.9374 10.1267 21.2715 7 25.4017 7ZM25.4017 40.1333C19.1815 40.1333 13.6828 37.1467 10.4731 32.62C10.5478 27.9767 20.4255 25.4333 25.4017 25.4333C30.353 25.4333 40.2556 27.9767 40.3303 32.62C37.1206 37.1467 31.6219 40.1333 25.4017 40.1333Z" fill="#333333"/>
</svg>
