<svg width="59" height="59" viewBox="0 0 59 59" fill="none" xmlns="http://www.w3.org/2000/svg">
<g filter="url(#filter0_d)">
<path d="M47.0526 30.184C47.1411 29.484 47.2001 28.756 47.2001 28C47.2001 27.244 47.1411 26.516 47.0231 25.816L52.0086 22.12C52.4511 21.784 52.5691 21.168 52.3036 20.692L47.5836 12.936C47.2886 12.432 46.6691 12.264 46.1381 12.432L40.2676 14.672C39.0286 13.776 37.7306 13.048 36.2851 12.488L35.4001 6.55201C35.3116 5.99201 34.8101 5.60001 34.2201 5.60001H24.7801C24.1901 5.60001 23.7181 5.99201 23.6296 6.55201L22.7446 12.488C21.2991 13.048 19.9716 13.804 18.7621 14.672L12.8916 12.432C12.3606 12.236 11.7411 12.432 11.4461 12.936L6.72606 20.692C6.43106 21.196 6.54906 21.784 7.02106 22.12L12.0066 25.816C11.8886 26.516 11.8001 27.272 11.8001 28C11.8001 28.728 11.8591 29.484 11.9771 30.184L6.99156 33.88C6.54906 34.216 6.43106 34.832 6.69656 35.308L11.4166 43.064C11.7116 43.568 12.3311 43.736 12.8621 43.568L18.7326 41.328C19.9716 42.224 21.2696 42.952 22.7151 43.512L23.6001 49.448C23.7181 50.008 24.1901 50.4 24.7801 50.4H34.2201C34.8101 50.4 35.3116 50.008 35.3706 49.448L36.2556 43.512C37.7011 42.952 39.0286 42.196 40.2381 41.328L46.1086 43.568C46.6396 43.764 47.2591 43.568 47.5541 43.064L52.2741 35.308C52.5691 34.804 52.4511 34.216 51.9791 33.88L47.0526 30.184V30.184ZM29.5001 36.4C24.6326 36.4 20.6501 32.62 20.6501 28C20.6501 23.38 24.6326 19.6 29.5001 19.6C34.3676 19.6 38.3501 23.38 38.3501 28C38.3501 32.62 34.3676 36.4 29.5001 36.4Z" fill="white"/>
</g>
<defs>
<filter id="filter0_d" x="-4" y="0" width="67" height="64" filterUnits="userSpaceOnUse" color-interpolation-filters="sRGB">
<feFlood flood-opacity="0" result="BackgroundImageFix"/>
<feColorMatrix in="SourceAlpha" type="matrix" values="0 0 0 0 0 0 0 0 0 0 0 0 0 0 0 0 0 0 127 0"/>
<feOffset dy="4"/>
<feGaussianBlur stdDeviation="2"/>
<feColorMatrix type="matrix" values="0 0 0 0 0 0 0 0 0 0 0 0 0 0 0 0 0 0 0.25 0"/>
<feBlend mode="normal" in2="BackgroundImageFix" result="effect1_dropShadow"/>
<feBlend mode="normal" in="SourceGraphic" in2="effect1_dropShadow" result="shape"/>
</filter>
</defs>
</svg>
